<svg width="19" height="20" viewBox="0 0 19 20" fill="none" xmlns="http://www.w3.org/2000/svg">
<path d="M9.5 0.671875C14.5469 0.671875 18.7031 4.82812 18.7031 9.875C18.7031 14.959 14.5469 19.0781 9.5 19.0781C4.41602 19.0781 0.296875 14.959 0.296875 9.875C0.296875 4.82812 4.41602 0.671875 9.5 0.671875ZM15.5488 4.93945C15.4004 5.16211 14.1016 6.83203 11.1699 8.01953C11.4668 8.61328 11.6523 9.05859 11.875 9.57812C14.4727 9.24414 17.0703 9.76367 17.3301 9.83789C17.3301 7.98242 16.6621 6.27539 15.5488 4.93945ZM14.6953 4.01172C12.7656 2.30469 10.1309 1.67383 7.64453 2.26758C7.86719 2.56445 9.27734 4.49414 10.5762 6.86914C13.3594 5.83008 14.5469 4.23438 14.6953 4.01172ZM6.12305 2.78711C3.93359 3.82617 2.30078 5.86719 1.78125 8.2793C2.15234 8.31641 5.38086 8.31641 9.05469 7.35156C7.75586 5.01367 6.3457 3.08398 6.12305 2.78711ZM1.63281 9.91211C1.63281 11.916 2.375 13.7715 3.63672 15.1445C4.89844 12.9922 7.49609 10.6914 10.3535 9.875C10.1309 9.42969 9.94531 8.98438 9.68555 8.53906C5.78906 9.72656 1.9668 9.68945 1.63281 9.65234C1.63281 9.76367 1.63281 9.83789 1.63281 9.91211ZM4.63867 16.1094C6.97656 17.9277 10.0195 18.2246 12.543 17.1484C12.4316 16.4434 11.9863 14.0312 10.873 11.1738C7.71875 12.25 5.49219 14.4395 4.63867 16.1094ZM13.8789 16.4062C15.623 15.2188 16.8848 13.3262 17.2559 11.1367C16.959 11.0625 14.8066 10.4316 12.3574 10.8027C13.3594 13.6602 13.8047 15.9609 13.8789 16.4062Z" fill="white"/>
</svg>
